# xmcd CD database file
#
# Track frame offsets:
#	150
#	19934
#	32402
#	42714
#	51763
#	68216
#	79539
#	104288
#	117489
#	132789
#	144843
#	158946
#	175652
#	190709
#
# Disc length: 2777 seconds
#
# Revision: 2
# Processed by: cddbd v1.5.1PL0 Copyright (c) Steve Scherf et al.
# Submitted via: CDex 1.51
#
DISCID=b50ad70e
DTITLE=yuo audia - ??????
DYEAR=1900
DGENRE=
TTITLE0=yuo audia01
TTITLE1=yuo audia02
TTITLE2=yuo audia03
TTITLE3=yuo audia04
TTITLE4=yuo audia05
TTITLE5=yuo audia06
TTITLE6=yuo audia07
TTITLE7=yuo audia08
TTITLE8=yuo audia09
TTITLE9=yuo audia10
TTITLE10=yuo audia11
TTITLE11=yuo audia12
TTITLE12=yuo audia13
TTITLE13=yuo audia14
EXTD=
EXTT0=
EXTT1=
EXTT2=
EXTT3=
EXTT4=
EXTT5=
EXTT6=
EXTT7=
EXTT8=
EXTT9=
EXTT10=
EXTT11=
EXTT12=
EXTT13=
PLAYORDER=
